<?xml version="1.0" encoding="UTF-8"?>
<svg id="Capa_1" xmlns="http://www.w3.org/2000/svg" xmlns:xlink="http://www.w3.org/1999/xlink" version="1.1" viewBox="0 0 392.2 265.3">
  <!-- Generator: Adobe Illustrator 29.2.1, SVG Export Plug-In . SVG Version: 2.1.0 Build 116)  -->
  <defs>
    <style>
      .st0 {
        fill: #3c3c3b;
      }

      .st1 {
        fill: url(#linear-gradient2);
      }

      .st2 {
        fill: url(#linear-gradient1);
      }

      .st3 {
        fill: url(#linear-gradient3);
      }

      .st4 {
        fill: url(#linear-gradient5);
      }

      .st5 {
        fill: url(#linear-gradient4);
      }

      .st6 {
        fill: url(#radial-gradient);
      }

      .st7 {
        fill: #bce1e2;
      }

      .st8 {
        fill: url(#linear-gradient);
      }

      .st9 {
        fill: #1d1d1b;
      }

      .st10 {
        fill: #e94e1b;
      }

      .st11 {
        fill: #fff;
      }

      .st12 {
        fill: #e30613;
      }

      .st13 {
        fill: #878787;
      }

      .st14 {
        fill: url(#radial-gradient1);
      }

      .st15 {
        fill: url(#radial-gradient2);
      }
    </style>
    <style>
      @keyframes cobete {
        from {
          transform: translateX(-5px) rotate(-5deg);
        }
        to {
          transform: translateX(10px) rotate(10deg);
        }
      }
      #cohete, #tronco_x5F_barra {
        transform-origin: 50% 50%;
        animation: 3s ease-in-out 0s infinite alternate both running cobete;
      }

      @keyframes tronco_goma_3 {
        from {
          transform: translateX(-4px);
        }
        to {
          transform: translateX(8px);
        }
      }
      #tronco_x5F_3 {
        animation: 3s ease-in-out 0s infinite alternate both running tronco_goma_3;
      }

      @keyframes tronco_goma_2 {
        from {
          transform: translateX(-2px);
        }
        to {
          transform: translateX(4px);
        }
      }
      #tronco_x5F_2 {
        animation: 3s ease-in-out 0s infinite alternate both running tronco_goma_2;
      }

      @keyframes tronco_goma_1 {
        from {
          transform: translateX(-1px);
        }
        to {
          transform: translateX(2px);
        }
      }
      #tronco_x5F_1 {
        animation: 3s ease-in-out 0s infinite alternate both running tronco_goma_1;
      }

      @keyframes piloto_parpadeo {
        from, 2%, 6%, 20%, 25%, 50%, 56%, 85%, 91%, to {
          fill: #e30613;
        }
        5% {
          fill: yellow;
        }
        22% {
          fill: white;
        }
        53% {
          fill: blue;
        }
        87% {
          fill: purple;
        }
      }

      #piloto {
        animation:  20s ease-in-out 0s infinite alternate both running piloto_parpadeo;
      }

    </style>
    <linearGradient id="linear-gradient" x1="210.3" y1="2045.6" x2="210.3" y2="2035.4" gradientTransform="translate(0 -1892)" gradientUnits="userSpaceOnUse">
      <stop offset="0" stop-color="#1d1d1b"/>
      <stop offset="1" stop-color="#3c3c3b"/>
    </linearGradient>
    <linearGradient id="linear-gradient1" x1="210.2" y1="2055.9" x2="210.2" y2="2045.7" gradientTransform="translate(0 -1892)" gradientUnits="userSpaceOnUse">
      <stop offset="0" stop-color="#1d1d1b"/>
      <stop offset="1" stop-color="#3c3c3b"/>
    </linearGradient>
    <linearGradient id="linear-gradient2" x1="210.2" y1="2066.1" x2="210.2" y2="2055.9" gradientTransform="translate(0 -1892)" gradientUnits="userSpaceOnUse">
      <stop offset="0" stop-color="#1d1d1b"/>
      <stop offset="1" stop-color="#3c3c3b"/>
    </linearGradient>
    <linearGradient id="linear-gradient3" x1="56.3" y1="2003.7" x2="91.1" y2="1996.8" gradientTransform="translate(0 -1892)" gradientUnits="userSpaceOnUse">
      <stop offset="0" stop-color="#3c3c3b"/>
      <stop offset="1" stop-color="#3c3c3b"/>
    </linearGradient>
    <linearGradient id="linear-gradient4" x1="223.1" y1="1934.3" x2="237.5" y2="2012.9" gradientTransform="translate(0 -1892)" gradientUnits="userSpaceOnUse">
      <stop offset="0" stop-color="#e6332a"/>
      <stop offset=".3" stop-color="#e30613"/>
      <stop offset=".7" stop-color="#e30613"/>
      <stop offset="1" stop-color="#be1622"/>
    </linearGradient>
    <radialGradient id="radial-gradient" cx="87.1" cy="3945.2" fx="155.4" fy="3959.2" r="69.7" gradientTransform="translate(0 -1906.8) scale(1 .5)" gradientUnits="userSpaceOnUse">
      <stop offset="0" stop-color="#e30613"/>
      <stop offset=".7" stop-color="#be1622"/>
    </radialGradient>
    <radialGradient id="radial-gradient1" cx="-273.2" cy="4908.3" fx="-207.6" fy="4877.4" r="72.6" gradientTransform="translate(-58 -2346.6) rotate(-10) scale(1 .5)" gradientUnits="userSpaceOnUse">
      <stop offset="0" stop-color="#e30613"/>
      <stop offset=".7" stop-color="#be1622"/>
    </radialGradient>
    <radialGradient id="radial-gradient2" cx="-621" cy="3187.4" fx="-621" fy="3187.4" r="261" gradientTransform="translate(-158.6 -2797) rotate(-15.6) scale(1 .9)" gradientUnits="userSpaceOnUse">
      <stop offset="0" stop-color="#e30613"/>
      <stop offset=".8" stop-color="#a81d26"/>
      <stop offset="1" stop-color="#972228"/>
    </radialGradient>
    <linearGradient id="linear-gradient5" x1="210.2" y1="2069.7" x2="210.2" y2="2145.6" gradientTransform="translate(0 -1892)" gradientUnits="userSpaceOnUse">
      <stop offset="0" stop-color="#e6332a"/>
      <stop offset=".4" stop-color="#e94e1b"/>
      <stop offset=".8" stop-color="#e94e1b"/>
      <stop offset=".9" stop-color="#f39200"/>
      <stop offset="1" stop-color="#e6332a"/>
    </linearGradient>
  </defs>
  <g id="tronco">
    <rect id="tronco_x5F_barra" class="st13" x="205.1" y="120.7" width="10.2" height="27.8"/>
    <path id="tronco_x5F_3" class="st8" d="M194.9,153.6l2.3-4.6c1.7-3.5,5.3-5.7,9.2-5.7h7.8c3.9,0,7.4,2.2,9.2,5.7l2.3,4.6h-30.8Z"/>
    <path id="tronco_x5F_2" class="st2" d="M184.6,163.9l2.3-4.6c1.7-3.5,5.3-5.7,9.2-5.7h28.2c3.9,0,7.4,2.2,9.2,5.7l2.3,4.6h-51.2Z"/>
    <path id="tronco_x5F_1" class="st1" d="M174.4,174.1l2.3-4.6c1.7-3.5,5.3-5.7,9.2-5.7h48.7c3.9,0,7.4,2.2,9.2,5.7l2.3,4.6h-71.7Z"/>
  </g>
  <g id="cohete">
    <path id="boquilla" class="st3" d="M55,75.6c.5-3.3,3-6,6.3-6.6l1.5-.3c26.9-4.7,59.6,24.2,60.8,30.9s-19.8,45-46.7,49.8l-1.5.3c-3.3.6-6.6-1-8.2-4-3.1-5.9-7.8-17.1-10.9-34.2-3-17.1-2.3-29.3-1.4-35.8h.1Z"/>
    <path id="cohete_x5F_tronco" class="st5" d="M285.2,24.5c2,11.1-22.4,24.7-54.4,30.3s-59.5,1.2-61.5-10c-45.3,8-80.6,14.2-80.6,14.2,0,0-9.2,6.8-2.1,47.1s18,43.6,18,43.6c0,0,156.2-27.4,196.5-34.5,40.3-7.1,74.4-49.4,72.6-59.5s-48.3-38.3-88.6-31.2h0Z"/>
    <path id="aleron_x5F_1" class="st6" d="M88.8,59s-24.6-21.6-69.9-13.7c-5,.9-6.8-5.5,3.3-11,14.2-7.7,43.6-18,81.5-9.1,37.9,8.9,55.7,21.4,55.7,21.4l-70.5,12.4h0Z"/>
    <path id="aleron_x5F_3" class="st14" d="M104.7,149.7s-15.7,28.7-61.1,36.7c-5,.9-4.5,7.5,6.8,9.2,16,2.4,47.1,2.1,79.7-19.2s45.1-39.1,45.1-39.1l-70.5,12.4h0Z"/>
    <path id="aleron_x5F_2" class="st15" d="M152.1,94.6l-65.5,11.5s-18.4,13.6-63.7,21.6c-5,.9-4.3,8.5,6.5,7.7,15.4-1.1,40.8-3.2,75.8-11.8,29.9-7.3,43.6-18,52.8-24.8s-5.9-4.2-5.9-4.2h0Z"/>
    <path id="luna" class="st7" d="M284.9,24.6c-8.4-10-21.2-15.8-31-15.2-1.4,0-2.5,1.2-2.6,2.5h0c-.9,12.5-.2,25,1.9,37.3h0c19.7-6.6,32.8-16,32.1-24.2v-.6h-.4v.2Z"/>
    <path id="volante" d="M240.6,21.9c-1.4.2-2.3,1.6-2.1,3l1.3,7.6,3.5,19.7c1.7-.4,3.3-.9,5-1.4l-3.4-19.2-1.3-7.6c-.2-1.4-1.6-2.3-3-2.1h0Z"/>
    <path id="asiento" class="st9" d="M196,56.9l-4.1-7c-.7-1.2-.7-2.5-.3-3.8.6-1.7.8-3.7.4-5.7-1.2-5.4-6.6-8.8-12.1-7.9l-2.2.4c-5.6,1-9.3,6.3-8.3,11.8,1.2,6.7,11.6,11,26.6,12.1h0Z"/>
  </g>
  <g id="base">
    <path id="base_x5F_base" class="st4" d="M104.3,252.4h0c-3.9-3.9-4.7-10-2-14.8l32.7-57.3c2.2-3.8,6.3-6.2,10.7-6.2h129c4.4,0,8.5,2.4,10.7,6.2l32.7,57.3c2.8,4.8,1.9,10.9-2,14.8h0c-2.3,2.3-5.4,3.6-8.7,3.6H113c-3.3,0-6.4-1.3-8.7-3.6Z"/>
    <path id="cajon" class="st10" d="M251.1,235.5l4.7-74.6c.3-4.1,3.6-7.3,7.7-7.3h36.6c4.1,0,7.5,3.2,7.7,7.3l4.7,74.6"/>
    <rect id="cajon_x5F_frontal" class="st0" x="266.5" y="169" width="30.7" height="61.4"/>
    <rect id="ranura" class="st9" x="286.9" y="174.1" width="5.1" height="15.4"/>
    <rect id="ranura_x5F_brillo" class="st11" x="286.9" y="189.4" width="5.1" height="5.1"/>
    <circle id="piloto" class="st12" cx="276.7" cy="179.2" r="5.1"/>
  </g>
</svg>
